HIERARCHY
ROOT Hips
{
 OFFSET 0.000000 0.000000 0.000000
 CHANNELS 6 Xposition Yposition Zposition Yrotation Xrotation Zrotation
 JOINT Chest
 {
  OFFSET 0.000000 9.585900 0.002600
  CHANNELS 3 Yrotation Xrotation Zrotation
  JOINT Chest2
  {
   OFFSET 0.000000 9.601200 -0.005300
   CHANNELS 3 Yrotation Xrotation Zrotation
   JOINT Chest3
   {
    OFFSET 0.000000 9.561800 0.000000
    CHANNELS 3 Yrotation Xrotation Zrotation
    JOINT Chest4
    {
     OFFSET 0.000000 9.552100 0.000000
     CHANNELS 3 Yrotation Xrotation Zrotation
     JOINT Neck
     {
      OFFSET 0.000000 14.453000 0.000000
      CHANNELS 3 Yrotation Xrotation Zrotation
      JOINT Head
      {
       OFFSET 0.000000 8.936500 -0.011300
       CHANNELS 3 Yrotation Xrotation Zrotation
       End Site
       {
        OFFSET 0.000000 17.073600 -0.006000
       }
      }
     }
     JOINT RightCollar
     {
      OFFSET -2.921100 9.558500 0.000000
      CHANNELS 3 Yrotation Xrotation Zrotation
      JOINT RightShoulder
      {
       OFFSET -13.519700 0.000000 0.000000
       CHANNELS 3 Yrotation Xrotation Zrotation
       JOINT RightElbow
       {
        OFFSET 0.000000 -29.696600 0.000000
        CHANNELS 3 Yrotation Xrotation Zrotation
        JOINT RightWrist
        {
         OFFSET 0.000000 -24.004700 0.000000
         CHANNELS 3 Yrotation Xrotation Zrotation
         End Site
         {
          OFFSET 0.000000 -17.728500 0.000000
         }
        }
       }
      }
     }
     JOINT LeftCollar
     {
      OFFSET 2.921100 9.558500 0.000000
      CHANNELS 3 Yrotation Xrotation Zrotation
      JOINT LeftShoulder
      {
       OFFSET 13.519700 0.000000 0.000000
       CHANNELS 3 Yrotation Xrotation Zrotation
       JOINT LeftElbow
       {
        OFFSET 0.000000 -29.696600 0.000000
        CHANNELS 3 Yrotation Xrotation Zrotation
        JOINT LeftWrist
        {
         OFFSET 0.000000 -24.004700 0.000000
         CHANNELS 3 Yrotation Xrotation Zrotation
         End Site
         {
          OFFSET 0.000000 -17.728500 0.000000
         }
        }
       }
      }
     }
    }
   }
  }
 }
 JOINT RightHip
 {
  OFFSET -7.771700 -0.012900 -0.001300
  CHANNELS 3 Yrotation Xrotation Zrotation
  JOINT RightKnee
  {
   OFFSET 0.000000 -40.869800 0.001200
   CHANNELS 3 Yrotation Xrotation Zrotation
   JOINT RightAnkle
   {
    OFFSET 0.000000 -39.717900 0.002100
    CHANNELS 3 Yrotation Xrotation Zrotation
    JOINT RightToe
    {
     OFFSET 0.000000 -4.965400 11.033500
     CHANNELS 3 Yrotation Xrotation Zrotation
     End Site
     {
      OFFSET 0.000000 -1.423100 5.872300
     }
    }
   }
  }
 }
 JOINT LeftHip
 {
  OFFSET 7.771700 -0.012900 -0.001300
  CHANNELS 3 Yrotation Xrotation Zrotation
  JOINT LeftKnee
  {
   OFFSET 0.000000 -40.869800 0.001200
   CHANNELS 3 Yrotation Xrotation Zrotation
   JOINT LeftAnkle
   {
    OFFSET 0.000000 -39.717900 0.002100
    CHANNELS 3 Yrotation Xrotation Zrotation
    JOINT LeftToe
    {
     OFFSET 0.000000 -4.965400 11.033500
     CHANNELS 3 Yrotation Xrotation Zrotation
     End Site
     {
      OFFSET 0.000000 -1.423100 5.872300
     }
    }
   }
  }
 }
}
MOTION
Frames: 12
Frame Time: 0.008333
-35.867351 50.635223 4.986072 164.951068 -6.919043 -0.261566 3.542784 5.797328 0.625522 0.126520 0.232477 -0.011229 0.230641 0.411035 -0.021322 3.034393 5.581681 -0.129424 2.356370 18.584543 -0.019312 4.348482 -1.244174 -0.804176 2.337739 6.164422 1.141831 -8.820853 -11.615583 -8.566650 -55.109740 -71.667554 80.877393 -1.857043 4.132851 -26.131743 -4.705539 3.500862 0.633174 20.500754 -4.341652 1.998731 60.317377 -74.350619 -83.027642 1.271046 8.623114 11.723243 -4.919631 -73.626540 -1.471405 -122.661053 83.115078 -120.932931 -2.374089 -14.668026 -0.450753 -0.218362 0.740354 -0.105452 -15.499383 -76.640482 29.657977 106.874067 78.051226 103.114105 -15.502687 -21.366931 -0.670871 -0.373799 -1.027868 -0.158689
-35.868711 50.635884 4.986007 164.967390 -6.915023 -0.263032 3.532430 5.794284 0.623264 0.126764 0.232705 -0.011238 0.234355 0.412084 -0.021365 3.038926 5.582632 -0.133356 2.352056 18.584258 -0.015697 4.345852 -1.240922 -0.799552 2.327482 6.156678 1.145672 -8.813618 -11.623183 -8.572629 -55.100252 -71.657518 80.864692 -1.852836 4.129075 -26.137224 -4.713456 3.484493 0.642570 20.492748 -4.336599 2.002263 60.343907 -74.350122 -83.061137 1.261421 8.632272 11.717402 -4.927009 -73.628145 -1.475001 -122.646159 83.113320 -120.917747 -2.381070 -14.672816 -0.449457 -0.217270 0.743875 -0.101946 -15.511229 -76.644958 29.655803 106.865501 78.049740 103.102694 -15.503878 -21.364068 -0.668842 -0.366973 -1.025577 -0.157772
-35.868919 50.636902 4.983563 164.953245 -6.926737 -0.261591 3.565106 5.808069 0.621706 0.127287 0.232997 -0.011688 0.223862 0.409851 -0.020106 3.043763 5.583207 -0.136328 2.354005 18.588584 -0.010692 4.341148 -1.241029 -0.791071 2.318150 6.150904 1.151063 -8.813409 -11.628432 -8.577923 -55.090885 -71.653755 80.863494 -1.855071 4.123994 -26.143216 -4.724389 3.479496 0.651216 20.489755 -4.340091 2.004504 60.392449 -74.360908 -83.128102 1.268993 8.645284 11.726680 -4.905809 -73.615123 -1.479599 -122.628693 83.117107 -120.899320 -2.386136 -14.672367 -0.449985 -0.213873 0.744994 -0.099447 -15.439327 -76.638517 29.604522 106.910910 78.048122 103.155346 -15.502034 -21.376580 -0.672748 -0.386841 -1.020930 -0.157282
-35.869538 50.637881 4.981416 164.945657 -6.936256 -0.257705 3.576922 5.816236 0.616448 0.127440 0.233071 -0.011769 0.225344 0.409354 -0.021261 3.045541 5.583794 -0.136469 2.357712 18.592390 -0.008956 4.337938 -1.233433 -0.773655 2.319036 6.139320 1.150843 -8.816934 -11.628948 -8.578378 -55.108862 -71.655480 80.889014 -1.863756 4.130942 -26.157102 -4.730878 3.477507 0.656763 20.492131 -4.361531 2.005292 60.365297 -74.354270 -83.110610 1.267784 8.651019 11.720477 -4.881264 -73.603442 -1.494955 -122.604454 83.117449 -120.873758 -2.387482 -14.677321 -0.450975 -0.213020 0.750194 -0.098036 -15.329601 -76.639190 29.512059 106.939035 78.053002 103.206396 -15.536439 -21.390590 -0.669769 -0.361109 -1.017152 -0.150570
-35.867234 50.638743 4.980478 164.941938 -6.943816 -0.272656 3.583688 5.822063 0.631365 0.127472 0.233095 -0.011797 0.229275 0.407957 -0.024558 3.042629 5.585008 -0.133335 2.360924 18.592956 -0.008799 4.334045 -1.231220 -0.766407 2.324658 6.119669 1.134948 -8.825783 -11.622020 -8.570795 -55.090488 -71.648907 80.875431 -1.863606 4.128627 -26.157018 -4.729001 3.463680 0.667143 20.492215 -4.356293 2.003762 60.358646 -74.349802 -83.110882 1.261554 8.644152 11.715388 -4.916950 -73.592125 -1.446754 -122.574013 83.119487 -120.843483 -2.386244 -14.672980 -0.447038 -0.218651 0.746207 -0.099533 -15.347576 -76.630141 29.536987 106.970364 78.057082 103.247058 -15.519913 -21.426222 -0.669691 -0.361001 -0.991878 -0.155365
-35.866621 50.639427 4.979296 164.941130 -6.950954 -0.278169 3.589534 5.825966 0.633952 0.127594 0.233091 -0.011783 0.230759 0.410337 -0.025127 3.043822 5.584117 -0.135426 2.368992 18.599327 -0.007022 4.322961 -1.234603 -0.752509 2.323366 6.111353 1.135404 -8.834030 -11.632435 -8.573985 -55.061738 -71.639516 80.858195 -1.870635 4.122657 -26.155680 -4.736574 3.460995 0.679216 20.494915 -4.356268 2.001694 60.370840 -74.349529 -83.128103 1.246963 8.622142 11.672269 -4.930070 -73.583047 -1.428789 -122.552608 83.118099 -120.823900 -2.381082 -14.670621 -0.442887 -0.222503 0.743107 -0.102095 -15.328895 -76.627075 29.525243 107.009666 78.071121 103.297016 -15.519041 -21.442146 -0.669349 -0.348849 -0.989366 -0.153513
-35.867336 50.639906 4.978086 164.945877 -6.957192 -0.277416 3.589415 5.830452 0.629452 0.128061 0.233520 -0.012040 0.233688 0.413147 -0.025378 3.048567 5.584384 -0.141275 2.364882 18.599158 0.003188 4.323511 -1.231184 -0.743007 2.315020 6.104445 1.143665 -8.835779 -11.637064 -8.577852 -55.055107 -71.633909 80.854741 -1.868070 4.109929 -26.151837 -4.748660 3.458649 0.692869 20.495557 -4.360642 2.001653 60.422293 -74.347910 -83.192829 1.244041 8.626714 11.661783 -4.918782 -73.576826 -1.445889 -122.569256 83.119182 -120.838051 -2.374434 -14.670364 -0.440496 -0.226323 0.740684 -0.105317 -15.318419 -76.627556 29.508449 107.055434 78.076497 103.348052 -15.507381 -21.441348 -0.667644 -0.354175 -1.005126 -0.157062
-35.867652 50.640191 4.977152 164.956442 -6.963598 -0.281060 3.592180 5.838690 0.626776 0.121957 0.232941 -0.009496 0.231677 0.412700 -0.023408 3.072257 5.593424 -0.153100 2.346898 18.590980 0.019066 4.323795 -1.226682 -0.726205 2.292497 6.088604 1.157203 -8.836064 -11.640810 -8.583548 -55.054479 -71.626389 80.851856 -1.866381 4.103351 -26.148760 -4.776725 3.441780 0.716410 20.498875 -4.361218 2.001976 60.495094 -74.348711 -83.306425 1.253064 8.647720 11.692742 -4.908606 -73.573236 -1.458663 -122.572711 83.107751 -120.842269 -2.366214 -14.659977 -0.430219 -0.234011 0.728200 -0.107728 -15.333605 -76.621308 29.511721 107.071051 78.079188 103.362771 -15.493728 -21.455595 -0.662052 -0.345979 -1.018350 -0.161228
-35.869608 50.640208 4.976719 164.962977 -6.965647 -0.276589 3.593929 5.843302 0.618625 0.123691 0.232167 -0.009672 0.226963 0.412243 -0.021597 3.071610 5.593443 -0.153071 2.354396 18.594404 0.017837 4.314023 -1.226580 -0.709522 2.290945 6.078682 1.150415 -8.833492 -11.639839 -8.582990 -55.057879 -71.626032 80.844731 -1.862192 4.095764 -26.142153 -4.793555 3.430294 0.718259 20.511094 -4.370635 2.011226 60.468284 -74.337270 -83.288877 1.242817 8.640571 11.671929 -4.888176 -73.571763 -1.483545 -122.565278 83.105479 -120.833998 -2.368934 -14.660918 -0.429251 -0.231752 0.729624 -0.106217 -15.348209 -76.615625 29.510011 107.068169 78.072175 103.351615 -15.474523 -21.461089 -0.662686 -0.378912 -1.024019 -0.168556
-35.871931 50.639981 4.977195 164.979179 -6.962661 -0.273752 3.579550 5.841962 0.612648 0.128087 0.232962 -0.011713 0.229919 0.417908 -0.023882 3.075227 5.591550 -0.152915 2.352953 18.603474 0.026018 4.306196 -1.235505 -0.700628 2.278560 6.067391 1.150043 -8.825386 -11.643027 -8.585563 -55.061282 -71.630921 80.845065 -1.862337 4.092238 -26.135356 -4.812784 3.420690 0.725937 20.513092 -4.374147 2.013526 60.476900 -74.335183 -83.299707 1.228302 8.632736 11.652704 -4.880119 -73.574955 -1.505636 -122.587187 83.109078 -120.856101 -2.375056 -14.664225 -0.426600 -0.230783 0.732601 -0.105630 -15.360627 -76.616203 29.507291 107.051589 78.084789 103.330481 -15.483910 -21.459136 -0.659366 -0.386180 -1.025428 -0.168434
-35.874568 50.639593 4.978039 164.984521 -6.957566 -0.269669 3.575014 5.838940 0.606862 0.129357 0.235183 -0.012495 0.228951 0.418229 -0.024412 3.074538 5.597005 -0.152781 2.353226 18.598314 0.028179 4.307309 -1.232112 -0.694156 2.279265 6.054413 1.142241 -8.822012 -11.647252 -8.584603 -55.073023 -71.642554 80.856553 -1.869411 4.095628 -26.134168 -4.816620 3.409295 0.729583 20.510416 -4.379381 2.017045 60.515498 -74.337573 -83.348833 1.221752 8.635551 11.652988 -4.847785 -73.582820 -1.538200 -122.601362 83.111254 -120.871563 -2.378335 -14.657668 -0.418625 -0.234805 0.729856 -0.106830 -15.367506 -76.619418 29.512801 107.039274 78.088221 103.309725 -15.499528 -21.448391 -0.650609 -0.400408 -1.035425 -0.171889
-35.874420 50.639191 4.979038 164.989512 -6.955910 -0.283257 3.572969 5.841674 0.616562 0.129478 0.235511 -0.012644 0.228032 0.418083 -0.023205 3.075799 5.603228 -0.154019 2.353028 18.591762 0.031397 4.309786 -1.226771 -0.687944 2.281841 6.034922 1.131739 -8.823310 -11.645086 -8.579871 -55.078129 -71.644794 80.863581 -1.869577 4.094873 -26.135215 -4.819885 3.396566 0.734698 20.506402 -4.384740 2.023221 60.604359 -74.358426 -83.446011 1.233139 8.654103 11.653528 -4.893182 -73.583005 -1.494927 -122.593236 83.111596 -120.863685 -2.371373 -14.653937 -0.413905 -0.241958 0.727520 -0.112068 -15.442732 -76.615646 29.586929 107.026487 78.084235 103.284844 -15.475582 -21.439763 -0.651778 -0.383781 -1.043830 -0.168219
